<svg width="395" height="250" fill="none" xmlns="http://www.w3.org/2000/svg"><mask id="a" maskUnits="userSpaceOnUse" x="0" y="0" width="395" height="250"><path d="M1.3 1.25h392.4v247.5H1.299V1.25z" fill="#F8F7F9" stroke="#B1A6F1" stroke-width="2"/></mask><g mask="url(#a)"><path d="M31.305 740.033l196.082-97.214c6.22-3.231 55.838-27.614 204.551-99.293 148.712-71.678 141.47-174.869 119.259-217.505-12.494-25.24-39.09-78.598-45.523-90.116-6.433-11.516 4.973-22.704 11.48-26.859 67.034-39.465 134.497-95.404 115.11-138.732-77.076-172.253-122.5-275.335-160.265-330.011-37.764-54.678-80.828-36.952-93.03-32.934-9.761 3.212-84.26 44.544-120.289 64.807l-14.072-25.193c-6.435-11.518-19.238-8.58-24.837-5.673C5.747-149.06-429.766 74.079-459.623 89.588c-29.857 15.51-28.036 33.137-23.392 40.012 57.679 104.696 194.319 351.326 279.444 500.273 85.125 148.946 192.053 135.501 234.876 110.16z" fill="#DBDAE0"/><path d="M260.456-365.911c131.116-60.206 218.007 25.987 242.782 71.599 16.516-46.142 117.262-105.673 204.796-79.554 186.627 55.687 145.739 229.285 128.822 265.709-48.034 103.42-275.813 414.211-312.148 437.546C488.375 352.725 273.67 87.546 224.124-4.737 174.576-97.02 83.739-284.766 260.456-365.91z" fill="#C3C1CB"/><path d="M-175.941 362.818c26.791 68.402 121.285 85.503 165.183 85.503l-.068 54.41c-.036 28.502 69.872 5.183 92.776-41.455 76.576 16.841 420.63-10.365 446.352-160.642 11.536-67.4-14.608-138.618-111.296-193.029-96.687-54.41-301.821-43.39-427.355 14.25-172.109 79.026-199.08 155.46-165.592 240.963z" fill="#100A30"/></g></svg>