<svg width="92" height="24" fill="none" xmlns="http://www.w3.org/2000/svg"><g clip-path="url(#clip0)" fill="#100A30"><path d="M0 23.74h11.368v-1.23l-2.817-.842V14.64l.971.259c1.231.356 2.43.518 3.563.518 4.34 0 7.579-2.559 7.579-6.996 0-4.47-3.595-6.964-9.587-6.964H0v1.231l2.656.842v18.138L0 22.51v1.23zM8.55 3.499h2.041c3.207 0 4.049.842 4.049 4.923 0 3.66-.519 4.826-3.304 4.826-.324 0-.713 0-1.101-.032l-1.684-.13V3.498zM24.9 24c2.234 0 4.113-1.652 5.052-3.271 0 2.04 1.328 3.206 3.466 3.206 1.587 0 2.623-.583 3.465-1.069v-1.295c-1.781-.162-2.073-.292-2.073-1.263v-5.442c0-5.668-2.364-7.352-6.704-7.352-2.883 0-6.802 1.199-6.802 4.146 0 1.457.94 2.494 2.332 2.494 1.264 0 2.203-.875 2.203-2.008 0-1.004-.518-1.944-1.782-2.203V9.88c.454-.13 1.231-.26 2.3-.26 2.397 0 3.595.551 3.595 2.85v2.397l-2.753.486c-4.405.745-6.38 2.105-6.38 4.923 0 2.268 1.749 3.725 4.08 3.725zm2.332-2.85c-.972 0-1.555-.454-1.555-1.717 0-1.392.518-2.073 2.202-2.688L29.952 16v3.628c-.745.971-1.652 1.522-2.72 1.522zm20.335 2.59h8.389v-1.78h-1.393l-5.441-8.39 3.919-3.756h2.073V8.032h-7.58v1.782h2.074L44.23 16.42V0h-1.133l-6.219 2.43v.712l2.494 1.392V21.96h-2.105v1.782h8.388V21.96H44.23v-3.692l1.684-1.62 3.175 5.313h-1.523v1.78zm19.301 0h8.388v-1.78h-1.392l-5.442-8.39 3.92-3.756h2.072V8.032h-7.579v1.782h2.073l-5.376 6.607V0h-1.134l-6.219 2.43v.712l2.494 1.392V21.96h-2.105v1.782h8.389V21.96h-1.425v-3.692l1.684-1.62 3.174 5.313h-1.522v1.78z"/><path d="M83.374 24c4.988 0 8.518-4.081 8.518-8.26 0-4.177-3.53-8.226-8.518-8.226-4.988 0-8.518 4.049-8.518 8.227S78.386 24 83.374 24zm0-1.814c-1.944 0-3.11-1.069-3.11-6.445 0-5.409 1.199-6.413 3.11-6.413 1.91 0 3.11.972 3.11 6.413 0 5.376-1.167 6.445-3.11 6.445z"/></g><defs><clipPath id="clip0"><path fill="#fff" d="M0 0h92v24H0z"/></clipPath></defs></svg>