<svg width="61" height="16" fill="none" xmlns="http://www.w3.org/2000/svg"><path d="M0 15.827h7.538v-.82l-1.869-.562V9.76l.645.173a8.45 8.45 0 002.362.345c2.878 0 5.025-1.706 5.025-4.664 0-2.98-2.384-4.642-6.357-4.642H0v.82l1.761.562v12.091L0 15.007v.82zM5.67 2.332h1.352c2.126 0 2.685.561 2.685 3.282 0 2.44-.344 3.217-2.19 3.217-.216 0-.473 0-.73-.021l-1.118-.087V2.332zM16.51 16c1.481 0 2.727-1.101 3.35-2.18 0 1.36.88 2.137 2.297 2.137 1.053 0 1.74-.389 2.298-.713v-.863c-1.18-.108-1.374-.195-1.374-.843V9.911c0-3.779-1.568-4.902-4.445-4.902-1.912 0-4.51.8-4.51 2.764 0 .972.623 1.663 1.546 1.663.837 0 1.46-.583 1.46-1.339 0-.67-.343-1.295-1.18-1.468v-.043c.3-.087.815-.173 1.524-.173 1.589 0 2.384.367 2.384 1.9v1.598l-1.826.324c-2.92.496-4.23 1.403-4.23 3.282 0 1.511 1.16 2.483 2.705 2.483zm1.546-1.9c-.645 0-1.031-.302-1.031-1.145 0-.928.344-1.382 1.46-1.792l1.375-.496v2.418c-.494.648-1.096 1.015-1.804 1.015zm13.484 1.727h5.56V14.64h-.923L32.57 9.047l2.599-2.504h1.374V5.355h-5.025v1.188h1.374l-3.565 4.404V0h-.751l-4.123 1.62v.474l1.653.929V14.64H24.71v1.187h5.562V14.64h-.945v-2.462l1.117-1.08 2.104 3.542H31.54v1.187zm12.796 0h5.562V14.64h-.923l-3.608-5.593 2.598-2.504h1.375V5.355h-5.025v1.188h1.374l-3.565 4.404V0h-.751l-4.124 1.62v.474l1.654.929V14.64h-1.396v1.187h5.562V14.64h-.945v-2.462l1.117-1.08 2.105 3.542h-1.01v1.187z" fill="#fff"/><path d="M55.28 16c3.308 0 5.648-2.72 5.648-5.506s-2.34-5.485-5.648-5.485c-3.307 0-5.648 2.7-5.648 5.485S51.973 16 55.28 16zm0-1.21c-1.288 0-2.061-.712-2.061-4.296 0-3.606.794-4.275 2.061-4.275s2.062.647 2.062 4.275c0 3.584-.773 4.297-2.062 4.297z" fill="#fff"/></svg>